# xmcd CD database file
#
# Track frame offsets:
#	150
#	24903
#	46182
#	78967
#	95741
#	124221
#	161376
#
# Disc length: 2310 seconds
#
# Revision: 0
# Processed by: cddbd v1.5.2PL0 Copyright (c) Steve Scherf et al.
# Submitted via: CDex 1.70beta2
#
DISCID=49090407
DTITLE=Panic Station - Panic Station
DYEAR=1996
DGENRE=Jazz
TTITLE0=Oliver
TTITLE1=Talking Jazz
TTITLE2=Shuffle
TTITLE3=Lingua Franca
TTITLE4=Seesaw
TTITLE5=In the attic
TTITLE6=Postcard
EXTD=YEAR: 1996
EXTT0=
EXTT1=
EXTT2=
EXTT3=
EXTT4=
EXTT5=
EXTT6=
PLAYORDER=
